<?xml version="1.0" encoding="UTF-8"?><svg id="LOGO" xmlns="http://www.w3.org/2000/svg" xmlns:xlink="http://www.w3.org/1999/xlink" viewBox="0 0 715.44 382.37"><defs><style>.cls-1{fill:url(#SUM_gradient);}</style><linearGradient id="SUM_gradient" x1="108.49" y1="153.76" x2="606.86" y2="153.76" gradientUnits="userSpaceOnUse"><stop offset="0" stop-color="#99c33b"/><stop offset="1" stop-color="#174197"/></linearGradient></defs><path class="cls-1" d="m568,162.16c.42-21.29-6.83-39.35-22.4-53.8-13.85-12.85-30.44-18.71-49.4-18.24v19.61c14.78-.55,27.46,4.14,37.8,14.54,10.35,10.42,15,23.17,14.47,37.89h19.54Zm36.68-24.81c-5.41-25.45-18.17-46.47-38.45-62.76-19.41-15.6-41.73-23.34-66.62-23.61-1.12-.01-2.26.12-3.4.2v19.3c25.54-.32,47.48,8.16,65.39,26.19,17.88,18,26.2,40.02,25.88,65.47h1.21c5.54,0,11.09-.04,16.63.04,1.22.01,1.48-.41,1.51-1.51.22-7.86-.52-15.65-2.14-23.32Zm-292.98-9.88v77.23c0,18.36-14.94,33.3-33.3,33.3s-33.3-14.94-33.3-33.3v-77.23h-18.53v77.23c0,28.58,23.25,51.83,51.83,51.83s51.83-23.25,51.83-51.83v-77.23h-18.53Zm168.88-1.41c-17.6,0-33.19,8.83-42.56,22.29-9.37-13.46-24.96-22.29-42.57-22.29-28.57,0-51.83,23.25-51.83,51.83v77.06h18.53v-77.06c0-18.36,14.94-33.3,33.3-33.3s33.3,14.94,33.3,33.3v77.06h18.53v-77.06c0-18.36,14.94-33.3,33.3-33.3s33.3,14.94,33.3,33.3v77.06h18.53v-77.06c0-28.58-23.25-51.83-51.83-51.83Zm-264.22,92.65c0,20.15-17.14,36.54-38.22,36.54h-61.8v-18.53h61.8c10.86,0,19.7-8.09,19.7-18.02s-8.83-18.02-19.7-18.02h-31.42c-21.08-.01-38.22-16.4-38.22-36.56s17.14-36.53,38.22-36.53h61.92v18.51h-61.92c-10.86,0-19.7,8.09-19.7,18.02s8.83,18.02,19.7,18.02h31.42c21.08.01,38.22,16.41,38.22,36.56Z"/></svg>